<?xml version="1.0" standalone="no"?>
<!DOCTYPE svg PUBLIC "-//W3C//DTD SVG 20010904//EN"
 "http://www.w3.org/TR/2001/REC-SVG-20010904/DTD/svg10.dtd">
<svg version="1.0" xmlns="http://www.w3.org/2000/svg"
 width="63.000000pt" height="44.000000pt" viewBox="0 0 63.000000 44.000000"
 preserveAspectRatio="xMidYMid meet">
<metadata>
Created by potrace 1.16, written by Peter Selinger 2001-2019
</metadata>
<g transform="translate(0.000000,44.000000) scale(0.100000,-0.100000)"
fill="#000000" stroke="none">
<path d="M0 220 l0 -220 315 0 315 0 0 220 0 220 -120 0 c-110 0 -120 -2 -120
-18 0 -11 -9 -44 -19 -75 l-20 -57 78 0 c81 0 107 -11 99 -44 -6 -27 -209
-236 -229 -236 -31 0 -34 27 -12 96 l21 64 -77 0 c-77 0 -101 9 -101 38 0 8
45 64 101 123 l101 109 -166 0 -166 0 0 -220z"/>
<path d="M250 293 l-73 -78 76 -3 c93 -3 106 -14 90 -75 -7 -23 -10 -43 -9
-45 2 -1 36 32 76 75 l73 78 -76 3 c-93 3 -106 14 -90 75 7 23 10 43 9 45 -2
1 -36 -32 -76 -75z"/>
</g>
</svg>
